<?xml version="1.0" encoding="utf-8"?>
<!-- Generator: Adobe Illustrator 15.1.0, SVG Export Plug-In . SVG Version: 6.00 Build 0)  -->
<!DOCTYPE svg PUBLIC "-//W3C//DTD SVG 1.1//EN" "http://www.w3.org/Graphics/SVG/1.1/DTD/svg11.dtd">
<svg version="1.1" id="svg" xmlns="http://www.w3.org/2000/svg" xmlns:xlink="http://www.w3.org/1999/xlink" x="0px" y="0px"
	 width="4535.434px" height="3174.803px" viewBox="0 0 4535.434 3174.803" enable-background="new 0 0 4535.434 3174.803"
	 xml:space="preserve">
<path id="ADG_1_" opacity="0.2" fill="#BDA430" d="M2140.03,1185.072l-91.009-644.683C1178.893,564.04,381,795.803,381,795.803
	v543.964l-152,49.505v33.032c92.85,40.279,503.081,147.303,874.285,221.226v-475.54L2140.03,1185.072z"/>
<path id="AUX_1_" opacity="0.2" fill="#59C5CA" d="M3725,1517.91v-283.376c-127.424-27.562-559.713-106.198-559.713-106.198v495.718
	H2461v649.937c121.303-2.847,251.047-9.073,386-20.187c633.781-52.193,1224.577-212.702,1301.961-234.28V1517.91H3725z"/>
<path id="AUI_3_" opacity="0.2" fill="#FCAF17" d="M2490.588,1191.596v157.207h221.952V1183.15l190.294-1.399l5.994-616.103
	c-51.427-7.517-232.535-27.202-718.941-27.202c-40.508,0-80.944,0.498-121.238,1.446l92.665,651.703H2490.588z"/>
<path id="AUI_2_" opacity="0.5" fill="#FCAF17" d="M3735,1234.533v268.353h413.961v-159.119
	C4148.961,1343.767,3921.251,1274.857,3735,1234.533z"/>
<g>
	<polygon fill="#D8D8D8" points="3223.756,2104.402 3274.666,2124.561 3286.914,2093.651 3254.365,2081.333 3249.387,2044.949 
		3216.953,2048.913 	"/>
	<polygon fill="#D8D8D8" points="3221.816,2109.013 3178.188,2140.825 3197.524,2167.45 3226.73,2146.314 3260.599,2160.064 
		3272.824,2129.21 	"/>
	<polygon fill="#D8D8D8" points="3156.078,2110.377 3175.251,2136.778 3218.795,2105.026 3211.988,2049.519 3178.632,2053.594 
		3183.611,2089.978 	"/>
</g>
<g>
	<polygon fill="#D8D8D8" points="3202.647,1989.981 3151.544,1970.319 3139.598,2001.348 3172.265,2013.348 3177.598,2049.681 
		3209.991,2045.402 	"/>
	<polygon fill="#D8D8D8" points="3204.543,1985.353 3247.858,1953.116 3228.265,1926.681 3199.265,1948.101 3165.265,1934.681 
		3153.34,1965.653 	"/>
	<polygon fill="#D8D8D8" points="3270.265,1983.348 3250.836,1957.134 3207.603,1989.31 3214.949,2044.748 3248.265,2040.348 
		3242.931,2004.015 	"/>
</g>
<g>
	<polygon fill="#D8D8D8" points="2778.756,2127.402 2829.666,2147.561 2841.914,2116.651 2809.365,2104.333 2804.387,2067.949 
		2771.953,2071.913 	"/>
	<polygon fill="#D8D8D8" points="2776.816,2132.013 2733.188,2163.825 2752.524,2190.45 2781.73,2169.314 2815.599,2183.064 
		2827.824,2152.21 	"/>
	<polygon fill="#D8D8D8" points="2711.078,2133.377 2730.251,2159.778 2773.795,2128.026 2766.988,2072.519 2733.632,2076.594 
		2738.611,2112.978 	"/>
</g>
<g>
	<polygon fill="#D8D8D8" points="2757.647,2012.981 2706.544,1993.319 2694.598,2024.348 2727.265,2036.348 2732.598,2072.681 
		2764.991,2068.402 	"/>
	<polygon fill="#D8D8D8" points="2759.543,2008.353 2802.858,1976.116 2783.265,1949.681 2754.265,1971.101 2720.265,1957.681 
		2708.34,1988.653 	"/>
	<polygon fill="#D8D8D8" points="2825.265,2006.348 2805.836,1980.134 2762.603,2012.31 2769.949,2067.748 2803.265,2063.348 
		2797.931,2027.015 	"/>
</g>
<g>
	<polygon fill="#D8D8D8" points="2298.137,1888.068 2319.883,1938.322 2350.398,1925.127 2336.094,1893.4 2358.301,1864.152 
		2332.564,1844.021 	"/>
	<polygon fill="#D8D8D8" points="2293.506,1889.957 2240.161,1881.604 2235.007,1914.102 2270.604,1919.809 2284.83,1953.48 
		2315.292,1940.307 	"/>
	<polygon fill="#D8D8D8" points="2246.057,1844.438 2240.945,1876.664 2294.188,1885.002 2328.625,1840.939 2302.156,1820.234 
		2279.951,1849.482 	"/>
</g>
<g>
	<polygon fill="#D8D8D8" points="2364.119,1792.234 2341.887,1742.197 2311.499,1755.689 2326.113,1787.273 2304.192,1816.736 
		2330.123,1836.617 	"/>
	<polygon fill="#D8D8D8" points="2368.732,1790.303 2422.156,1798.137 2426.994,1765.59 2391.342,1760.229 2376.789,1726.697 
		2346.456,1740.166 	"/>
	<polygon fill="#D8D8D8" points="2416.623,1835.357 2421.42,1803.082 2368.098,1795.264 2334.092,1839.66 2360.762,1860.105 
		2382.681,1830.643 	"/>
</g>
<g>
	<polygon fill="#D8D8D8" points="2128.962,2137.027 2154.93,2088.822 2125.663,2073.046 2109.626,2103.934 2072.91,2104.627 
		2073.059,2137.301 	"/>
	<polygon fill="#D8D8D8" points="2133.314,2139.493 2159.812,2186.539 2188.513,2170.445 2170.935,2138.971 2188.547,2106.94 
		2159.332,2091.195 	"/>
	<polygon fill="#D8D8D8" points="2126.99,2204.94 2155.45,2188.983 2129.002,2142.027 2073.079,2142.303 2073.23,2175.907 
		2109.946,2175.213 	"/>
</g>
<g>
	<polygon fill="#D8D8D8" points="2012.859,2144.625 1987.362,2193.081 2016.782,2208.57 2032.516,2177.529 2069.224,2176.478 
		2068.758,2143.806 	"/>
	<polygon fill="#D8D8D8" points="2008.483,2142.201 1981.527,2095.417 1952.984,2111.787 1970.87,2143.092 1953.569,2175.291 
		1982.937,2190.752 	"/>
	<polygon fill="#D8D8D8" points="2014.169,2076.696 1985.865,2092.929 2012.771,2139.625 2068.687,2138.806 2068.209,2105.204 
		2031.502,2106.257 	"/>
</g>
<polygon fill="#D8D8D8" points="3043.635,2223.984 3065.414,2173.749 3034.914,2160.517 3021.56,2192.653 2985.033,2196.462 
	2987.955,2229.007 "/>
<polygon fill="#D8D8D8" points="2924.132,2173.62 2897.311,2192.199 2928.083,2236.441 2983.729,2230.877 2980.398,2197.436 
	2943.914,2201.604 "/>
<g>
	<polygon fill="#D8D8D8" points="3625.816,1509.09 3673.491,1536.021 3689.851,1507.076 3659.292,1490.424 3659.336,1453.7 
		3626.664,1453.191 	"/>
	<polygon fill="#D8D8D8" points="3623.265,1513.392 3575.696,1538.939 3591.21,1567.959 3623.031,1551.016 3654.701,1569.268 
		3671.031,1540.374 	"/>
	<polygon fill="#D8D8D8" points="3557.957,1505.754 3573.34,1534.529 3620.816,1509.03 3621.664,1453.112 3588.063,1452.589 
		3588.021,1489.312 	"/>
</g>
<g>
	<polygon fill="#D8D8D8" points="3625.816,1820.475 3673.491,1847.404 3689.851,1818.461 3659.292,1801.809 3659.336,1765.084 
		3626.664,1764.576 	"/>
	<polygon fill="#D8D8D8" points="3623.265,1824.775 3575.696,1850.324 3591.21,1879.344 3623.031,1862.4 3654.701,1880.652 
		3671.031,1851.758 	"/>
	<polygon fill="#D8D8D8" points="3557.957,1817.139 3573.34,1845.914 3620.816,1820.414 3621.664,1764.496 3588.063,1763.973 
		3588.021,1800.695 	"/>
</g>
<g>
	<polygon fill="#D8D8D8" points="3620.553,1704.242 3572.617,1677.775 3556.54,1706.879 3587.26,1723.234 3587.574,1759.955 
		3620.248,1760.146 	"/>
	<polygon fill="#D8D8D8" points="3623.062,1699.916 3670.38,1673.906 3654.584,1645.039 3622.928,1662.293 3591.083,1644.35 
		3575.035,1673.4 	"/>
	<polygon fill="#D8D8D8" points="3688.441,1706.916 3672.779,1678.293 3625.553,1704.254 3625.249,1760.176 3658.854,1760.373 
		3658.538,1723.652 	"/>
</g>
<g>
	<polygon fill="#D8D8D8" points="3620.553,1392.857 3572.617,1366.392 3556.54,1395.495 3587.26,1411.85 3587.574,1448.57 
		3620.248,1448.762 	"/>
	<polygon fill="#D8D8D8" points="3623.062,1388.531 3670.38,1362.521 3654.584,1333.654 3622.928,1350.908 3591.083,1332.965 
		3575.035,1362.016 	"/>
	<polygon fill="#D8D8D8" points="3688.441,1395.532 3672.779,1366.908 3625.553,1392.869 3625.249,1448.791 3658.854,1448.988 
		3658.538,1412.268 	"/>
</g>
<rect x="3802.014" y="1604.854" fill="#D8D8D8" width="349.317" height="66.035"/>
<rect x="4014.524" y="1750.349" fill="#D8D8D8" width="66.035" height="250.593"/>
<rect x="3812.524" y="1750.349" fill="#D8D8D8" width="66.035" height="250.593"/>
<g>
	<polygon fill="#D8D8D8" points="2781.816,998.229 2829.491,1025.16 2845.851,996.216 2815.292,979.563 2815.336,942.84 
		2782.664,942.331 	"/>
	<polygon fill="#D8D8D8" points="2779.265,1002.531 2731.696,1028.079 2747.21,1057.099 2779.031,1040.155 2810.701,1058.407 
		2827.031,1029.514 	"/>
	<polygon fill="#D8D8D8" points="2713.957,994.894 2729.34,1023.669 2776.816,998.17 2777.664,942.252 2744.063,941.729 
		2744.021,978.451 	"/>
</g>
<g>
	<polygon fill="#D8D8D8" points="2776.553,881.997 2728.617,855.531 2712.54,884.635 2743.26,900.989 2743.574,937.71 
		2776.248,937.901 	"/>
	<polygon fill="#D8D8D8" points="2779.062,877.671 2826.38,851.661 2810.584,822.794 2778.928,840.048 2747.083,822.104 
		2731.035,851.155 	"/>
	<polygon fill="#D8D8D8" points="2844.441,884.672 2828.779,856.048 2781.553,882.009 2781.249,937.931 2814.854,938.128 
		2814.538,901.407 	"/>
</g>
<g>
	<polygon fill="#D8D8D8" points="2241.356,1004.7 2292.438,1024.419 2304.419,993.405 2271.766,981.368 2266.474,945.028 
		2234.074,949.271 	"/>
	<polygon fill="#D8D8D8" points="2239.456,1009.327 2196.104,1041.514 2215.668,1067.972 2244.69,1046.585 2278.676,1060.043 
		2290.636,1029.084 	"/>
	<polygon fill="#D8D8D8" points="2173.731,1011.256 2193.131,1037.492 2236.4,1005.367 2229.116,949.919 2195.795,954.282 
		2201.089,990.621 	"/>
</g>
<g>
	<polygon fill="#D8D8D8" points="2219.264,890.464 2167.992,871.243 2156.313,902.373 2189.083,914.091 2194.728,950.378 
		2227.083,945.82 	"/>
	<polygon fill="#D8D8D8" points="2221.119,885.82 2264.155,853.212 2244.334,826.945 2215.52,848.615 2181.406,835.488 
		2169.749,866.562 	"/>
	<polygon fill="#D8D8D8" points="2286.82,883.25 2267.166,857.204 2224.212,889.75 2232.036,945.123 2265.312,940.437 
		2259.666,904.151 	"/>
</g>
<g>
	<polygon fill="#D8D8D8" points="1797.549,1003.728 1848.631,1023.447 1860.612,992.434 1827.959,980.396 1822.667,944.057 
		1790.268,948.3 	"/>
	<polygon fill="#D8D8D8" points="1795.649,1008.355 1752.297,1040.542 1771.862,1067 1800.884,1045.613 1834.869,1059.071 
		1846.829,1028.112 	"/>
	<polygon fill="#D8D8D8" points="1729.925,1010.285 1749.325,1036.521 1792.594,1004.396 1785.309,948.947 1751.989,953.311 
		1757.283,989.649 	"/>
</g>
<g>
	<polygon fill="#D8D8D8" points="1775.457,889.493 1724.185,870.271 1712.507,901.401 1745.276,913.119 1750.921,949.406 
		1783.276,944.849 	"/>
	<polygon fill="#D8D8D8" points="1777.312,884.848 1820.349,852.24 1800.527,825.974 1771.713,847.644 1737.6,834.517 
		1725.942,865.59 	"/>
	<polygon fill="#D8D8D8" points="1843.014,882.278 1823.359,856.232 1780.405,888.778 1788.229,944.151 1821.505,939.465 
		1815.859,903.18 	"/>
</g>
<g>
	<polygon fill="#D8D8D8" points="1296.607,1068.406 1344.511,1094.928 1360.622,1065.845 1329.923,1049.454 1329.652,1012.732 
		1296.977,1012.503 	"/>
	<polygon fill="#D8D8D8" points="1294.092,1072.729 1246.744,1098.685 1262.505,1127.569 1294.18,1110.354 1326.005,1128.335 
		1342.088,1099.303 	"/>
	<polygon fill="#D8D8D8" points="1228.722,1065.65 1244.35,1094.294 1291.607,1068.39 1291.976,1012.466 1258.372,1012.23 
		1258.645,1048.952 	"/>
</g>
<g>
	<polygon fill="#D8D8D8" points="1290.351,952.223 1242.189,926.168 1226.363,955.408 1257.221,971.498 1257.848,1008.216 
		1290.523,1008.128 	"/>
	<polygon fill="#D8D8D8" points="1292.823,947.876 1339.916,921.462 1323.874,892.73 1292.367,910.255 1260.369,892.584 
		1244.571,921.771 	"/>
	<polygon fill="#D8D8D8" points="1358.259,954.317 1342.352,925.827 1295.35,952.192 1295.525,1008.115 1329.129,1008.024 
		1328.5,971.308 	"/>
</g>
<g>
	<polygon fill="#D8D8D8" points="846.607,1110.355 894.511,1136.877 910.622,1107.794 879.923,1091.403 879.652,1054.681 
		846.977,1054.452 	"/>
	<polygon fill="#D8D8D8" points="844.092,1114.679 796.744,1140.634 812.505,1169.519 844.18,1152.303 876.005,1170.284 
		892.088,1141.252 	"/>
	<polygon fill="#D8D8D8" points="778.722,1107.6 794.35,1136.243 841.607,1110.339 841.976,1054.415 808.372,1054.18 
		808.645,1090.901 	"/>
</g>
<g>
	<polygon fill="#D8D8D8" points="840.351,994.172 792.189,968.117 776.363,997.357 807.221,1013.447 807.848,1050.165 
		840.523,1050.077 	"/>
	<polygon fill="#D8D8D8" points="842.823,989.825 889.916,963.411 873.874,934.68 842.367,952.204 810.369,934.534 794.571,963.72 	
		"/>
	<polygon fill="#D8D8D8" points="908.259,996.266 892.352,967.776 845.35,994.141 845.525,1050.064 879.129,1049.974 
		878.5,1013.257 	"/>
</g>
<g>
	<polygon fill="#D8D8D8" points="968.115,1434.103 1016.019,1460.625 1032.13,1431.541 1001.431,1415.15 1001.16,1378.428 
		968.484,1378.199 	"/>
	<polygon fill="#D8D8D8" points="965.6,1438.426 918.252,1464.381 934.013,1493.266 965.688,1476.05 997.513,1494.031 
		1013.596,1465 	"/>
	<polygon fill="#D8D8D8" points="900.229,1431.347 915.857,1459.99 963.115,1434.086 963.484,1378.162 929.88,1377.927 
		930.153,1414.648 	"/>
	<polygon fill="#D8D8D8" points="1063.274,1492.092 1015.83,1466.313 1000.062,1495.195 1031.677,1512.521 1033.77,1549.013 
		1066.888,1546.834 	"/>
</g>
<g>
	<polygon fill="#D8D8D8" points="961.858,1317.919 913.697,1291.864 897.871,1321.104 928.729,1337.194 929.356,1373.912 
		962.031,1373.824 	"/>
	<polygon fill="#D8D8D8" points="964.331,1313.572 1011.424,1287.158 995.382,1258.427 963.875,1275.951 931.877,1258.281 
		916.079,1287.467 	"/>
	<polygon fill="#D8D8D8" points="1029.767,1320.013 1013.86,1291.523 966.857,1317.888 967.033,1373.812 1000.637,1373.721 
		1000.008,1337.004 	"/>
</g>
<g>
	<polygon fill="#D8D8D8" points="2773.254,676.725 2728.401,645.314 2709.321,672.547 2738.13,692.073 2734.54,728.621 
		2767.009,732.282 	"/>
	<polygon fill="#D8D8D8" points="2776.209,672.688 2826.024,651.852 2813.386,621.469 2780.074,635.264 2750.316,614.038 
		2731.271,641.22 	"/>
	<polygon fill="#D8D8D8" points="2840.476,686.596 2827.943,656.469 2778.225,677.267 2771.979,732.843 2805.372,736.608 
		2808.962,700.06 	"/>
</g>
<g>
	<polygon fill="#D8D8D8" points="2557.642,803.092 2548.107,749.172 2515.363,754.953 2521.945,789.126 2493.576,812.444 
		2513.96,837.981 	"/>
	<polygon fill="#D8D8D8" points="2562.584,802.325 2612.554,822.791 2625.084,792.364 2591.768,778.581 2585.715,742.534 
		2553.03,748.304 	"/>
	<polygon fill="#D8D8D8" points="2598.224,857.583 2610.648,827.413 2560.775,806.988 2517.08,841.89 2538.044,868.155 
		2566.412,844.836 	"/>
</g>
<g>
	<polygon fill="#D8D8D8" points="2203.085,651.487 2151.914,631.998 2140.071,663.068 2172.779,674.957 2178.233,711.272 
		2210.611,706.883 	"/>
	<polygon fill="#D8D8D8" points="2204.964,646.852 2248.173,614.467 2228.489,588.098 2199.562,609.619 2165.518,596.314 
		2153.695,627.327 	"/>
	<polygon fill="#D8D8D8" points="2270.679,644.622 2251.162,618.475 2208.037,650.796 2215.568,706.211 2248.869,701.697 
		2243.414,665.383 	"/>
</g>
<g>
	<polygon fill="#D8D8D8" points="3179.383,1797.77 3128.279,1778.107 3116.333,1809.136 3149,1821.136 3154.333,1857.469 
		3186.727,1853.19 	"/>
	<polygon fill="#D8D8D8" points="3181.278,1793.141 3224.594,1760.904 3205,1734.469 3176,1755.889 3142,1742.469 
		3130.075,1773.441 	"/>
	<polygon fill="#D8D8D8" points="3247,1791.136 3227.571,1764.922 3184.338,1797.098 3191.685,1852.536 3225,1848.136 
		3219.666,1811.803 	"/>
</g>
<g>
	<polygon fill="#D8D8D8" points="2339.051,2058.663 2389.466,2080.028 2402.446,2049.419 2370.201,2036.329 2366.09,1999.838 
		2333.57,2003.027 	"/>
	<polygon fill="#D8D8D8" points="2271.249,2063.024 2289.787,2089.875 2334.076,2059.168 2328.594,2003.515 2295.149,2006.794 
		2299.262,2043.286 	"/>
</g>
<g>
	<polygon fill="#D8D8D8" points="3514.753,1248.046 3556.221,1283.805 3577.939,1258.631 3551.24,1236.308 3558.486,1200.308 
		3526.549,1193.399 	"/>
	<polygon fill="#D8D8D8" points="3511.406,1251.764 3459.75,1267.485 3469.271,1298.982 3503.799,1288.61 3531.273,1312.72 
		3552.955,1287.59 	"/>
	<polygon fill="#D8D8D8" points="3448.864,1231.464 3458.304,1262.699 3509.861,1247.006 3521.66,1192.342 3488.815,1185.238 
		3481.57,1221.238 	"/>
</g>
<g>
	<polygon fill="#D8D8D8" points="541.567,858.008 514.903,905.833 543.938,922.031 560.42,891.38 597.143,891.219 597.468,858.544 	
		"/>
	<polygon fill="#D8D8D8" points="537.251,855.48 511.437,808.056 482.505,823.731 499.627,855.457 481.551,887.229 510.535,903.397 
			"/>
	<polygon fill="#D8D8D8" points="544.524,790.131 515.834,805.674 541.598,853.009 597.521,853.544 597.855,819.94 561.133,820.104 
			"/>
</g>
<g>
	<polygon fill="#D8D8D8" points="657.768,852.097 683.966,804.013 654.772,788.101 638.592,818.91 601.872,819.429 601.863,852.104 
			"/>
	<polygon fill="#D8D8D8" points="662.108,854.582 688.382,901.753 717.161,885.797 699.73,854.237 717.495,822.292 688.356,806.407 
			"/>
	<polygon fill="#D8D8D8" points="655.473,919.999 684.009,904.176 657.784,857.096 601.861,857.105 601.852,890.71 638.57,890.189 	
		"/>
</g>
<g>
	<polygon fill="#D8D8D8" points="836.535,759.082 858.886,808.233 888.867,794.669 874.061,761.797 894.364,731.402 
		866.613,713.201 	"/>
	<polygon fill="#D8D8D8" points="824.603,823.742 854.331,810.292 832.021,761.235 776.282,756.698 773.541,790.19 810.18,792.657 	
		"/>
	<polygon fill="#D8D8D8" points="771.44,789.892 772.696,757.287 718.84,755.317 689.869,803.149 718.604,820.572 737.187,788.9 	
		"/>
</g>
<g>
	<polygon fill="#D8D8D8" points="665.688,1397.982 692.21,1350.078 663.127,1333.967 646.736,1364.666 610.014,1364.937 
		609.785,1397.612 	"/>
	<polygon fill="#D8D8D8" points="670.012,1400.497 695.967,1447.845 724.852,1432.083 707.636,1400.409 725.617,1368.584 
		696.585,1352.501 	"/>
	<polygon fill="#D8D8D8" points="662.933,1465.867 691.576,1450.239 665.672,1402.982 609.748,1402.613 609.513,1436.217 
		646.234,1435.944 	"/>
</g>
<g>
	<polygon fill="#D8D8D8" points="549.505,1404.238 523.45,1452.399 552.69,1468.226 568.78,1437.368 605.498,1436.741 
		605.41,1404.065 	"/>
	<polygon fill="#D8D8D8" points="545.158,1401.766 518.744,1354.673 490.013,1370.715 507.537,1402.222 489.867,1434.22 
		519.053,1450.018 	"/>
	<polygon fill="#D8D8D8" points="551.599,1336.33 523.109,1352.237 549.474,1399.239 605.397,1399.064 605.307,1365.459 
		568.59,1366.089 	"/>
</g>
<rect x="1384" y="636.367" transform="matrix(0.9924 -0.1228 0.1228 0.9924 -70.1259 188.8433)" fill="#D8D8D8" width="225.999" height="53.951"/>
<rect x="1699.14" y="607.1" transform="matrix(0.9924 -0.1228 0.1228 0.9924 -64.5747 220.3351)" fill="#D8D8D8" width="112.398" height="53.95"/>
<polygon fill="#D8D8D8" points="2764.749,1730.688 2717.32,1704.883 2701.537,1733.755 2733.143,1751.101 2735.217,1787.596 
	2768.336,1785.433 "/>
<polygon fill="#D8D8D8" points="2738.361,1847.003 2785.644,1873.074 2801.589,1844.292 2770.081,1826.768 2768.212,1790.263 
	2735.082,1792.239 "/>
<rect x="1988.372" y="1708.541" fill="#D8D8D8" width="70.229" height="210.595"/>
<polygon fill="#D8D8D8" points="1256.066,670.163 1201.366,672.625 1202.853,705.839 1237.592,703.745 1257.035,734.899 1285,718 
	"/>
<polygon fill="#D8D8D8" points="1315.361,636.994 1287.056,620.761 1260.337,667.562 1289.281,715.413 1318.042,698.033 
	1298.598,666.881 "/>
<circle fill="#D8D8D8" cx="2367.914" cy="814.963" r="44.494"/>
<circle fill="#D8D8D8" cx="1296.607" cy="806.407" r="44.494"/>
<circle fill="#D8D8D8" cx="1061" cy="702.531" r="42.285"/>
<circle fill="#D8D8D8" cx="1696.252" cy="1811.217" r="42.285"/>
<circle fill="#D8D8D8" cx="3459.75" cy="2095.417" r="42.285"/>
<circle fill="#D8D8D8" cx="3656.846" cy="1990.3" r="42.285"/>
<circle fill="#D8D8D8" cx="1670.494" cy="1929.816" r="33.78"/>
<circle fill="#D8D8D8" cx="1696.253" cy="2132.012" r="33.78"/>
<circle fill="#D8D8D8" cx="3416.373" cy="1391.621" r="15.023"/>
<circle fill="#D8D8D8" cx="3340.647" cy="1375.897" r="15.023"/>
<circle fill="#D8D8D8" cx="3403.627" cy="1450.979" r="15.023"/>
<circle fill="#D8D8D8" cx="3448.864" cy="1424.304" r="15.023"/>
<path fill="#FAA960" d="M1716,1729.811c0,0,76,105.748,76,219.87c0,141.515-53.462,214.324-53.462,214.324l32.462,22.534
	c0,0,60-76.98,60-236.858c0-138.464-88-241.14-88-241.14L1716,1729.811z"/>
<rect x="3070.443" y="1193.228" fill="#FAA960" width="65.154" height="413.213"/>
<polygon fill="#FAA960" points="1124.423,1514.663 1189.577,1531.803 1189.577,1194.49 1124.423,1194.49 "/>
<polygon fill="#A5A4A4" points="3275.54,1699.184 3307.055,1861.38 3497.529,1827.382 3467.03,1663.622 "/>
<polygon fill="#A5A4A4" points="3309.877,1870.803 3334.512,2010.363 3524.333,1977.803 3499.108,1836.641 "/>
<polygon fill="#A5A4A4" points="3066.333,1771.803 2855,1786.47 2871.667,2060.47 3083,2047.803 "/>
<rect x="2366.632" y="909.803" fill="#A5A4A4" width="295.941" height="191.022"/>
<path fill="#A5A4A4" d="M1842.495,549.801L1871,713.803l196.993-27l-19.086-146.405
	C2048.907,540.397,1894.455,549.801,1842.495,549.801z"/>
<polygon fill="#A5A4A4" points="2070.993,696.47 2088.333,819.137 1890.333,844.47 1874.333,721.803 "/>
<polygon fill="#A5A4A4" points="2088.333,826.803 2128,1109.713 1930,1109.713 1893,852.484 "/>
<polygon fill="#A5A4A4" points="1639,771.47 1420,795.803 1456,1123.504 1676,1103.082 "/>
<rect x="965" y="798.803" fill="#A5A4A4" width="192" height="136"/>
<rect x="965" y="946.487" fill="#A5A4A4" width="192" height="129.316"/>
<rect x="478" y="1109.713" fill="#A5A4A4" width="129" height="161.09"/>
<polygon fill="none" stroke="#000000" stroke-miterlimit="10" points="2851,1694.967 2952.333,1687.803 2958.667,1770.247 
	2858,1778.107 "/>
<polygon fill="none" stroke="#000000" stroke-miterlimit="10" points="2958.667,1687.803 3056.564,1680.545 3062.667,1763.989 
	2965.224,1770.115 "/>
<path fill="none" stroke="#000000" stroke-miterlimit="10" d="M2610.648,1608.939"/>
<rect x="2488" y="1196.565" fill="none" stroke="#000000" stroke-miterlimit="10" width="224.54" height="152.237"/>
<path fill="none" stroke="#000000" stroke-miterlimit="10" d="M2488,1357.803h224.54v195c0,0-17.942,53.973-87.456,53.973
	c-48.084,0-137.084,0-137.084,0V1357.803z"/>
<rect x="2461" y="1704.883" fill="none" stroke="#000000" stroke-miterlimit="10" width="198" height="170.92"/>
<rect x="2461" y="1884.859" fill="none" stroke="#000000" stroke-miterlimit="10" width="198" height="139.082"/>
<rect x="1926.655" y="1707.226" fill="none" stroke="#000000" stroke-miterlimit="10" width="198" height="296.577"/>
<rect x="2242.548" y="2124.561" fill="none" stroke="#000000" stroke-miterlimit="10" width="198" height="151.825"/>
<rect x="2461" y="2035.633" fill="none" stroke="#000000" stroke-miterlimit="10" width="198" height="139.082"/>
<path fill="none" stroke="#000000" stroke-miterlimit="10" d="M3735,2109.803V1510.91h413.961V2010
	C4148.961,2010,4014.523,2047.611,3735,2109.803z"/>
<path fill="none" stroke="#000000" stroke-miterlimit="10" d="M2403,540.397v132.291h111.603V541.979
	C2514.603,541.979,2433.984,541.334,2403,540.397z"/>
<path fill="none" stroke="#000000" stroke-miterlimit="10" d="M2521.609,542.252L2521,672.688h111V547.803
	C2632,547.803,2589.057,545.35,2521.609,542.252z"/>
<rect x="1197.607" y="1195.478" fill="none" stroke="#000000" stroke-miterlimit="10" width="282.393" height="255.638"/>
<polygon fill="none" stroke="#000000" stroke-miterlimit="10" points="1197.607,1531.803 1480,1602.718 1480,1459.582 
	1197.607,1459.582 "/>
<rect x="478" y="953.478" fill="none" stroke="#000000" stroke-miterlimit="10" width="227" height="147.054"/>
<rect x="612.117" y="1107.562" fill="none" stroke="#000000" stroke-miterlimit="10" width="92.883" height="163.241"/>
<polygon fill="none" stroke="#000000" stroke-miterlimit="10" points="1157,1086.323 1157,1145.747 965,1182.161 965,1086.323 "/>
<rect x="2779.363" y="1193.228" fill="none" stroke="#000000" stroke-miterlimit="10" width="125.078" height="317.682"/>
<rect x="2076.993" y="1213.246" fill="#A5A4A4" width="118.894" height="374.156"/>
<rect x="2352.961" y="1213.246" fill="#A5A4A4" width="118.894" height="374.156"/>
<g>
	<line fill="none" stroke="#000000" stroke-width="4" stroke-miterlimit="10" x1="1486" y1="1313.803" x2="1638" y2="1313.803"/>
	<line fill="none" stroke="#000000" stroke-width="4" stroke-miterlimit="10" x1="1486" y1="1326.273" x2="1638" y2="1326.273"/>
	<line fill="none" stroke="#000000" stroke-width="4" stroke-miterlimit="10" x1="1486" y1="1338.744" x2="1638" y2="1338.744"/>
	<line fill="none" stroke="#000000" stroke-width="4" stroke-miterlimit="10" x1="1486" y1="1351.214" x2="1638" y2="1351.214"/>
	<line fill="none" stroke="#000000" stroke-width="4" stroke-miterlimit="10" x1="1486" y1="1363.685" x2="1638" y2="1363.685"/>
	<line fill="none" stroke="#000000" stroke-width="4" stroke-miterlimit="10" x1="1486" y1="1376.156" x2="1638" y2="1376.156"/>
	<line fill="none" stroke="#000000" stroke-width="4" stroke-miterlimit="10" x1="1486" y1="1388.626" x2="1638" y2="1388.626"/>
	<line fill="none" stroke="#000000" stroke-width="4" stroke-miterlimit="10" x1="1486" y1="1401.097" x2="1638" y2="1401.097"/>
	<line fill="none" stroke="#000000" stroke-width="4" stroke-miterlimit="10" x1="1486" y1="1413.567" x2="1638" y2="1413.567"/>
	<line fill="none" stroke="#000000" stroke-width="4" stroke-miterlimit="10" x1="1486" y1="1426.038" x2="1562" y2="1426.038"/>
	<line fill="none" stroke="#000000" stroke-width="4" stroke-miterlimit="10" x1="1486" y1="1438.509" x2="1562" y2="1438.509"/>
	<line fill="none" stroke="#000000" stroke-width="4" stroke-miterlimit="10" x1="1486" y1="1450.979" x2="1562" y2="1450.979"/>
	<line fill="none" stroke="#000000" stroke-width="4" stroke-miterlimit="10" x1="1486" y1="1463.45" x2="1562" y2="1463.45"/>
	<line fill="none" stroke="#000000" stroke-width="4" stroke-miterlimit="10" x1="1486" y1="1475.92" x2="1562" y2="1475.92"/>
	<line fill="none" stroke="#000000" stroke-width="4" stroke-miterlimit="10" x1="1486" y1="1488.391" x2="1562" y2="1488.391"/>
	<line fill="none" stroke="#000000" stroke-width="4" stroke-miterlimit="10" x1="1486" y1="1500.861" x2="1562" y2="1500.861"/>
	<line fill="none" stroke="#000000" stroke-width="4" stroke-miterlimit="10" x1="1486" y1="1300.803" x2="1562" y2="1300.803"/>
	<line fill="none" stroke="#000000" stroke-width="4" stroke-miterlimit="10" x1="1486" y1="1513.332" x2="1562" y2="1513.332"/>
	<line fill="none" stroke="#000000" stroke-width="4" stroke-miterlimit="10" x1="1486" y1="1525.803" x2="1562" y2="1525.803"/>
	<line fill="none" stroke="#000000" stroke-width="4" stroke-miterlimit="10" x1="1562" y1="1295.803" x2="1562" y2="1531.803"/>
</g>
<polygon fill="#8AC6C6" points="1937.607,1223.533 1937.607,1295.803 1865.61,1295.803 1865.61,1587.401 2057.601,1587.401 
	2057.601,1223.677 "/>
<polygon fill="#8AC6C6" points="1777.115,1221.595 1777.115,1293.864 1849.111,1293.864 1849.111,1585.463 1657.121,1585.463 
	1657.121,1221.739 "/>
<path fill="none" stroke="#000000" stroke-width="4" stroke-miterlimit="10" d="M2579,1875.803"/>
<polygon fill="none" stroke="#8AC6C6" stroke-miterlimit="10" points="3142,1742.469 3176,1755.889 3205,1734.469 3247,1791.136 
	3219.666,1811.803 3225,1848.136 3154.333,1857.469 3149,1821.136 3116.333,1809.136 "/>
<g>
	
		<line fill="none" stroke="#7F7F7F" stroke-width="5" stroke-miterlimit="10" x1="2904.441" y1="1200.562" x2="2904.441" y2="1608.939"/>
	
		<line fill="none" stroke="#7F7F7F" stroke-width="5" stroke-miterlimit="10" x1="2480.468" y1="1200.562" x2="2480.468" y2="1608.939"/>
	
		<line fill="none" stroke="#7F7F7F" stroke-width="5" stroke-miterlimit="10" x1="3059.258" y1="1200.562" x2="3059.258" y2="1608.939"/>
</g>
<line fill="none" stroke="#7F7F7F" stroke-width="5" stroke-miterlimit="10" x1="2451" y1="1682.737" x2="2451" y2="2274.386"/>
<line fill="none" stroke="#BDA430" stroke-width="4" stroke-miterlimit="10" x1="2057.601" y1="541.747" x2="2139.44" y2="1116.504"/>
<g>
	
		<line fill="none" stroke="#000000" stroke-width="4" stroke-miterlimit="10" x1="2904.441" y1="1313.803" x2="3056.441" y2="1313.803"/>
	
		<line fill="none" stroke="#000000" stroke-width="4" stroke-miterlimit="10" x1="2904.441" y1="1326.273" x2="3056.441" y2="1326.273"/>
	
		<line fill="none" stroke="#000000" stroke-width="4" stroke-miterlimit="10" x1="2904.441" y1="1338.744" x2="3056.441" y2="1338.744"/>
	
		<line fill="none" stroke="#000000" stroke-width="4" stroke-miterlimit="10" x1="2904.441" y1="1351.214" x2="3056.441" y2="1351.214"/>
	
		<line fill="none" stroke="#000000" stroke-width="4" stroke-miterlimit="10" x1="2904.441" y1="1363.685" x2="3056.441" y2="1363.685"/>
	
		<line fill="none" stroke="#000000" stroke-width="4" stroke-miterlimit="10" x1="2904.441" y1="1376.156" x2="3056.441" y2="1376.156"/>
	
		<line fill="none" stroke="#000000" stroke-width="4" stroke-miterlimit="10" x1="2904.441" y1="1388.626" x2="3056.441" y2="1388.626"/>
	
		<line fill="none" stroke="#000000" stroke-width="4" stroke-miterlimit="10" x1="2904.441" y1="1401.097" x2="3056.441" y2="1401.097"/>
	
		<line fill="none" stroke="#000000" stroke-width="4" stroke-miterlimit="10" x1="2904.441" y1="1413.567" x2="3056.441" y2="1413.567"/>
	
		<line fill="none" stroke="#000000" stroke-width="4" stroke-miterlimit="10" x1="2904.441" y1="1426.038" x2="2980.441" y2="1426.038"/>
	
		<line fill="none" stroke="#000000" stroke-width="4" stroke-miterlimit="10" x1="2904.441" y1="1438.509" x2="2980.441" y2="1438.509"/>
	
		<line fill="none" stroke="#000000" stroke-width="4" stroke-miterlimit="10" x1="2904.441" y1="1450.979" x2="2980.441" y2="1450.979"/>
	
		<line fill="none" stroke="#000000" stroke-width="4" stroke-miterlimit="10" x1="2904.441" y1="1463.45" x2="2980.441" y2="1463.45"/>
	
		<line fill="none" stroke="#000000" stroke-width="4" stroke-miterlimit="10" x1="2904.441" y1="1475.92" x2="2980.441" y2="1475.92"/>
	
		<line fill="none" stroke="#000000" stroke-width="4" stroke-miterlimit="10" x1="2904.441" y1="1488.391" x2="2980.441" y2="1488.391"/>
	
		<line fill="none" stroke="#000000" stroke-width="4" stroke-miterlimit="10" x1="2904.441" y1="1500.861" x2="2980.441" y2="1500.861"/>
	
		<line fill="none" stroke="#000000" stroke-width="4" stroke-miterlimit="10" x1="2904.441" y1="1300.803" x2="2980.441" y2="1300.803"/>
	
		<line fill="none" stroke="#000000" stroke-width="4" stroke-miterlimit="10" x1="2904.441" y1="1513.332" x2="2980.441" y2="1513.332"/>
	
		<line fill="none" stroke="#000000" stroke-width="4" stroke-miterlimit="10" x1="2904.441" y1="1525.803" x2="2980.441" y2="1525.803"/>
	
		<line fill="none" stroke="#000000" stroke-width="4" stroke-miterlimit="10" x1="2980.441" y1="1295.803" x2="2980.441" y2="1531.803"/>
</g>
<circle fill="none" stroke="#000000" stroke-miterlimit="10" cx="3386.534" cy="1418.842" r="106.961"/>
<g>
	<path fill="none" stroke="#7F7F7F" stroke-width="5" stroke-miterlimit="10" d="M2925.886,568.52
		c78.624,6.034,365.035,52.005,398.039,58.006c3.822,44.738,0,509.924,0,509.924"/>
	<path fill="none" stroke="#7F7F7F" stroke-width="5" stroke-miterlimit="10" d="M1619,2241.552
		c-78.062-11.155-381.026-52.006-414.03-58.006c-3.822-44.738,0-519.924,0-519.924"/>
	<line fill="none" stroke="#7F7F7F" stroke-width="5" stroke-miterlimit="10" x1="1486" y1="1200.562" x2="1486" y2="1608.939"/>
	
		<line fill="none" stroke="#7F7F7F" stroke-width="5" stroke-miterlimit="10" x1="1640.816" y1="1200.562" x2="1640.816" y2="1608.939"/>
	
		<line fill="none" stroke="#7F7F7F" stroke-width="5" stroke-miterlimit="10" x1="2070.993" y1="1200.562" x2="2070.993" y2="1608.939"/>
</g>
<path fill="none" stroke="#7F7F7F" stroke-width="5" stroke-miterlimit="10" d="M2925.886,568.52c0,0-134.821-30.073-735.999-30.073
	C1267,538.447,381,795.803,381,795.803v543.964l-152,49.505v33.032c143.63,62.308,1046.721,284.33,1390,296.476v523.023
	c0,0,548,68,1228,12s1310.523-236.69,1310.523-236.69v-549.246L4311,1419.717v-36.02c0,0-788.055-260.193-1394.115-296.976
	C2918.885,1006.777,2925.886,568.52,2925.886,568.52z"/>
</svg>
